# xmcd CD database file
#
# Track frame offsets:
#	150
#	5695
#	20987
#	29900
#	44740
#	87215
#	97478
#	111086
#	151146
#	189451
#	191092
#	206087
#	216272
#	234886
#
# Disc length: 3471 seconds
#
# Revision: 1
# Processed by: cddbd v1.5.1PL0 Copyright (c) Steve Scherf et al.
# Submitted via: CDex 1.51
#
DISCID=cf0d8d0e
DTITLE=Nighthawks, The - At The Pysche Delly-El Macombo
DYEAR=1976
DGENRE=Blues
TTITLE0=Intro:
TTITLE1=Jail House Rock
TTITLE2=Hound Dog
TTITLE3=Can't Get Next To You
TTITLE4=Shake and Fingerpop
TTITLE5=Whammer Jammer
TTITLE6=Tripe Face Boogie
TTITLE7=Nineteen Years Old
TTITLE8=Shake Your Money Maker
TTITLE9=Intro:
TTITLE10=Ubangi Stomp
TTITLE11=Mystery Dance
TTITLE12=Boppin' The Blues
TTITLE13=Talked To My Baby
EXTD=YEAR: 1976
EXTT0=
EXTT1=
EXTT2=
EXTT3=
EXTT4=
EXTT5=
EXTT6=
EXTT7=
EXTT8=
EXTT9=
EXTT10=
EXTT11=
EXTT12=
EXTT13=
PLAYORDER=
